<svg id="Capa_1" data-name="Capa 1" xmlns="http://www.w3.org/2000/svg" xmlns:xlink="http://www.w3.org/1999/xlink" viewBox="0 0 93.1 93.1"><defs><style>.cls-1{fill:none;}.cls-2{clip-path:url(#clip-path);}.cls-3{clip-path:url(#clip-path-2);}.cls-4{fill:#e41224;}.cls-5{clip-path:url(#clip-path-3);}.cls-6{clip-path:url(#clip-path-4);}.cls-7{fill:#c71621;}.cls-8{clip-path:url(#clip-path-5);}.cls-9{fill:#1f3d8a;}.cls-10{fill:#ffcc07;}</style><clipPath id="clip-path"><circle class="cls-1" cx="-66.62" cy="46.43" r="45.62"/></clipPath><clipPath id="clip-path-2"><rect class="cls-1" x="-143.39" y="0.8" width="156.42" height="91.24"/></clipPath><clipPath id="clip-path-3"><circle class="cls-1" cx="159.58" cy="46.54" r="45.62"/></clipPath><clipPath id="clip-path-4"><rect class="cls-1" x="77.97" y="-3.37" width="163.79" height="95.54"/></clipPath><clipPath id="clip-path-5"><circle class="cls-1" cx="46.78" cy="46.49" r="45.62"/></clipPath></defs><g class="cls-2"><g id="CANADA"><g class="cls-3"><rect class="cls-4" x="-30.6" y="0.8" width="43.63" height="91.24"/></g></g></g><g class="cls-5"><g id="SWITZERLAND"><g class="cls-6"><rect class="cls-7" x="77.97" y="-3.37" width="163.79" height="95.54"/></g></g></g><g class="cls-8"><g id="layer1"><rect id="rect2991" class="cls-9" x="-22.6" y="0.86" width="139.3" height="92.87"/><path id="path3769" class="cls-10" d="M47.05,11.18l1.16,3.57H52l-3,2.2,1.16,3.57-3-2.21-3,2.21L45.18,17l-3-2.2H45.9Z"/><path id="path3793" class="cls-10" d="M73.88,57.62,75,61.18h3.75l-3,2.2L76.92,67l-3-2.2-3,2.2L72,63.38l-3-2.2h3.74Z"/><path id="path3795" class="cls-10" d="M47.05,73.09l1.16,3.57H52l-3,2.2,1.16,3.57-3-2.21-3,2.21,1.16-3.57-3-2.2H45.9Z"/><path id="path3797" class="cls-10" d="M78,42.14l1.16,3.56h3.75l-3,2.21L81,51.47l-3-2.2-3,2.2,1.16-3.56-3-2.21h3.75Z"/><path id="path3799" class="cls-10" d="M16.1,42.14l1.16,3.56H21l-3,2.21,1.16,3.56-3-2.2-3,2.2,1.15-3.56-3-2.21h3.75Z"/><path id="path3801" class="cls-10" d="M62.53,15.31l1.16,3.56h3.75l-3,2.21,1.15,3.56-3-2.2-3,2.2,1.16-3.56-3-2.21h3.74Z"/><path id="path3803" class="cls-10" d="M31.58,15.31l1.15,3.56h3.75l-3,2.21,1.16,3.56-3-2.2-3,2.2,1.16-3.56-3-2.21h3.75Z"/><path id="path3805" class="cls-10" d="M31.58,69l1.15,3.56h3.75l-3,2.21,1.16,3.56-3-2.2-3,2.2,1.16-3.56-3-2.21h3.75Z"/><path id="path3807" class="cls-10" d="M62.53,69l1.16,3.56h3.75l-3,2.21,1.15,3.56-3-2.2-3,2.2,1.16-3.56-3-2.21h3.74Z"/><path id="path3809" class="cls-10" d="M73.88,26.66,75,30.23h3.75l-3,2.2L76.92,36l-3-2.2-3,2.2L72,32.43l-3-2.2h3.74Z"/><path id="path3811" class="cls-10" d="M20.23,26.66l1.15,3.57h3.75l-3,2.2L23.26,36l-3-2.2-3,2.2,1.16-3.56-3-2.2h3.75Z"/><path id="path3813" class="cls-10" d="M20.23,57.62l1.15,3.56h3.75l-3,2.2L23.26,67l-3-2.2-3,2.2,1.16-3.57-3-2.2h3.75Z"/></g></g></svg>