<svg id="Capa_1" data-name="Capa 1" xmlns="http://www.w3.org/2000/svg" xmlns:xlink="http://www.w3.org/1999/xlink" viewBox="0 0 93.1 93.1"><defs><style>.cls-1{fill:none;}.cls-2{clip-path:url(#clip-path);}.cls-3{clip-path:url(#clip-path-2);}.cls-4{fill:#fff;}.cls-5{fill:#bc1733;}.cls-6{clip-path:url(#clip-path-3);}.cls-7{clip-path:url(#clip-path-4);}.cls-8{fill:#cb1520;}.cls-9{fill:#2b3560;}</style><clipPath id="clip-path"><circle class="cls-1" cx="-66.32" cy="46.62" r="45.62"/></clipPath><clipPath id="clip-path-2"><rect class="cls-1" x="-146.13" y="0.83" width="161.17" height="94.02"/></clipPath><clipPath id="clip-path-3"><circle class="cls-1" cx="46.68" cy="47.1" r="45.62"/></clipPath><clipPath id="clip-path-4"><rect class="cls-1" x="-23.59" y="0.63" width="161.19" height="94.02"/></clipPath></defs><g class="cls-2"><g id="MEXICO"><g class="cls-3"><rect class="cls-4" x="-146.13" y="0.83" width="161.17" height="94.02"/><rect class="cls-5" x="-38.6" y="0.83" width="53.65" height="94.02"/></g></g></g><g class="cls-6"><g id="USA"><g class="cls-7"><rect class="cls-8" x="-23.59" y="87.42" width="161.19" height="7.23"/><rect class="cls-4" x="-23.59" y="80.19" width="161.19" height="7.23"/><rect class="cls-8" x="-23.59" y="72.96" width="161.19" height="7.23"/><rect class="cls-4" x="-23.59" y="65.73" width="161.19" height="7.23"/><rect class="cls-8" x="-23.59" y="58.5" width="161.19" height="7.24"/><rect class="cls-4" x="-23.59" y="51.27" width="161.19" height="7.23"/><rect class="cls-8" x="-23.59" y="44.03" width="161.19" height="7.24"/><rect class="cls-4" x="-23.59" y="36.8" width="161.19" height="7.23"/><rect class="cls-8" x="-23.59" y="29.57" width="161.19" height="7.23"/><rect class="cls-4" x="-23.59" y="22.33" width="161.19" height="7.24"/><rect class="cls-8" x="-23.59" y="15.1" width="161.19" height="7.23"/><rect class="cls-4" x="-23.59" y="7.87" width="161.19" height="7.23"/><rect class="cls-8" x="-23.59" y="0.63" width="161.19" height="7.24"/><rect class="cls-9" x="-23.59" y="0.63" width="73.61" height="50.64"/><polygon class="cls-4" points="0.79 10.66 1.41 12.58 3.44 12.58 1.79 13.77 2.42 15.68 0.79 14.5 -0.83 15.68 -0.2 13.77 -1.84 12.58 0.17 12.58 0.79 10.66"/><polygon class="cls-4" points="0.79 19.12 1.41 21.03 3.44 21.03 1.79 22.22 2.42 24.13 0.79 22.95 -0.83 24.13 -0.2 22.22 -1.84 21.03 0.17 21.03 0.79 19.12"/><polygon class="cls-4" points="0.79 27.57 1.41 29.48 3.44 29.48 1.79 30.67 2.42 32.58 0.79 31.4 -0.83 32.58 -0.2 30.67 -1.84 29.48 0.17 29.48 0.79 27.57"/><polygon class="cls-4" points="0.79 36.03 1.41 37.94 3.44 37.94 1.79 39.12 2.42 41.03 0.79 39.84 -0.83 41.03 -0.2 39.12 -1.84 37.94 0.17 37.94 0.79 36.03"/><polygon class="cls-4" points="6.76 6.21 7.39 8.13 9.38 8.13 7.75 9.31 8.4 11.23 6.76 10.05 5.13 11.23 5.74 9.31 4.13 8.13 6.14 8.13 6.76 6.21"/><polygon class="cls-4" points="6.76 14.67 7.39 16.58 9.38 16.58 7.75 17.76 8.4 19.68 6.76 18.49 5.13 19.68 5.74 17.76 4.13 16.58 6.14 16.58 6.76 14.67"/><polygon class="cls-4" points="6.76 23.12 7.39 25.03 9.38 25.03 7.75 26.21 8.4 28.13 6.76 26.94 5.13 28.13 5.74 26.21 4.13 25.03 6.14 25.03 6.76 23.12"/><polygon class="cls-4" points="6.76 31.57 7.39 33.48 9.38 33.48 7.75 34.67 8.4 36.58 6.76 35.4 5.13 36.58 5.74 34.67 4.13 33.48 6.14 33.48 6.76 31.57"/><polygon class="cls-4" points="6.76 40.02 7.39 41.94 9.38 41.94 7.75 43.11 8.4 45.03 6.76 43.84 5.13 45.03 5.74 43.11 4.13 41.94 6.14 41.94 6.76 40.02"/><polygon class="cls-4" points="12.65 10.66 13.27 12.58 15.27 12.58 13.65 13.77 14.26 15.68 12.65 14.5 11.03 15.68 11.63 13.77 10.01 12.58 12.02 12.58 12.65 10.66"/><polygon class="cls-4" points="12.65 19.12 13.27 21.03 15.27 21.03 13.65 22.22 14.26 24.13 12.65 22.95 11.03 24.13 11.63 22.22 10.01 21.03 12.02 21.03 12.65 19.12"/><polygon class="cls-4" points="12.65 27.57 13.27 29.48 15.27 29.48 13.65 30.67 14.26 32.58 12.65 31.4 11.03 32.58 11.63 30.67 10.01 29.48 12.02 29.48 12.65 27.57"/><polygon class="cls-4" points="12.65 36.03 13.27 37.94 15.27 37.94 13.65 39.12 14.26 41.03 12.65 39.84 11.03 41.03 11.63 39.12 10.01 37.94 12.02 37.94 12.65 36.03"/><polygon class="cls-4" points="18.59 6.21 19.22 8.13 21.23 8.13 19.61 9.31 20.23 11.23 18.59 10.05 16.98 11.23 17.59 9.31 15.97 8.13 17.98 8.13 18.59 6.21"/><polygon class="cls-4" points="18.59 14.67 19.22 16.58 21.23 16.58 19.61 17.76 20.23 19.68 18.59 18.49 16.98 19.68 17.59 17.76 15.97 16.58 17.98 16.58 18.59 14.67"/><polygon class="cls-4" points="18.59 23.12 19.22 25.03 21.23 25.03 19.61 26.21 20.23 28.13 18.59 26.94 16.98 28.13 17.59 26.21 15.97 25.03 17.98 25.03 18.59 23.12"/><polygon class="cls-4" points="18.59 31.57 19.22 33.48 21.23 33.48 19.61 34.67 20.23 36.58 18.59 35.4 16.98 36.58 17.59 34.67 15.97 33.48 17.98 33.48 18.59 31.57"/><polygon class="cls-4" points="18.59 40.02 19.22 41.94 21.23 41.94 19.61 43.11 20.23 45.03 18.59 43.84 16.98 45.03 17.59 43.11 15.97 41.94 17.98 41.94 18.59 40.02"/><polygon class="cls-4" points="24.48 10.66 25.1 12.58 27.13 12.58 25.5 13.77 26.12 15.68 24.48 14.5 22.86 15.68 23.49 13.77 21.86 12.58 23.88 12.58 24.48 10.66"/><polygon class="cls-4" points="24.48 19.12 25.1 21.03 27.13 21.03 25.5 22.22 26.12 24.13 24.48 22.95 22.86 24.13 23.49 22.22 21.86 21.03 23.88 21.03 24.48 19.12"/><polygon class="cls-4" points="24.48 27.57 25.1 29.48 27.13 29.48 25.5 30.67 26.12 32.58 24.48 31.4 22.86 32.58 23.49 30.67 21.86 29.48 23.88 29.48 24.48 27.57"/><polygon class="cls-4" points="24.48 36.03 25.1 37.94 27.13 37.94 25.5 39.12 26.12 41.03 24.48 39.84 22.86 41.03 23.49 39.12 21.86 37.94 23.88 37.94 24.48 36.03"/><polygon class="cls-4" points="30.45 6.21 31.08 8.13 33.09 8.13 31.46 9.31 32.07 11.23 30.45 10.05 28.84 11.23 29.45 9.31 27.82 8.13 29.83 8.13 30.45 6.21"/><polygon class="cls-4" points="30.45 14.67 31.08 16.58 33.09 16.58 31.46 17.76 32.07 19.68 30.45 18.49 28.84 19.68 29.45 17.76 27.82 16.58 29.83 16.58 30.45 14.67"/><polygon class="cls-4" points="30.45 23.12 31.08 25.03 33.09 25.03 31.46 26.21 32.07 28.13 30.45 26.94 28.84 28.13 29.45 26.21 27.82 25.03 29.83 25.03 30.45 23.12"/><polygon class="cls-4" points="30.45 31.57 31.08 33.48 33.09 33.48 31.46 34.67 32.07 36.58 30.45 35.4 28.84 36.58 29.45 34.67 27.82 33.48 29.83 33.48 30.45 31.57"/><polygon class="cls-4" points="30.45 40.02 31.08 41.94 33.09 41.94 31.46 43.11 32.07 45.03 30.45 43.84 28.84 45.03 29.45 43.11 27.82 41.94 29.83 41.94 30.45 40.02"/><polygon class="cls-4" points="36.34 10.66 36.95 12.58 38.97 12.58 37.35 13.77 37.95 15.68 36.34 14.5 34.7 15.68 35.33 13.77 33.71 12.58 35.71 12.58 36.34 10.66"/><polygon class="cls-4" points="36.34 19.12 36.95 21.03 38.97 21.03 37.35 22.22 37.95 24.13 36.34 22.95 34.7 24.13 35.33 22.22 33.71 21.03 35.71 21.03 36.34 19.12"/><polygon class="cls-4" points="36.34 27.57 36.95 29.48 38.97 29.48 37.35 30.67 37.95 32.58 36.34 31.4 34.7 32.58 35.33 30.67 33.71 29.48 35.71 29.48 36.34 27.57"/><polygon class="cls-4" points="36.34 36.03 36.95 37.94 38.97 37.94 37.35 39.12 37.95 41.03 36.34 39.84 34.7 41.03 35.33 39.12 33.71 37.94 35.71 37.94 36.34 36.03"/><polygon class="cls-4" points="42.29 6.21 42.92 8.13 44.92 8.13 43.3 9.31 43.93 11.23 42.29 10.05 40.67 11.23 41.28 9.31 39.66 8.13 41.67 8.13 42.29 6.21"/><polygon class="cls-4" points="42.29 14.67 42.92 16.58 44.92 16.58 43.3 17.76 43.93 19.68 42.29 18.49 40.67 19.68 41.28 17.76 39.66 16.58 41.67 16.58 42.29 14.67"/><polygon class="cls-4" points="42.29 23.12 42.92 25.03 44.92 25.03 43.3 26.21 43.93 28.13 42.29 26.94 40.67 28.13 41.28 26.21 39.66 25.03 41.67 25.03 42.29 23.12"/><polygon class="cls-4" points="42.29 31.57 42.92 33.48 44.92 33.48 43.3 34.67 43.93 36.58 42.29 35.4 40.67 36.58 41.28 34.67 39.66 33.48 41.67 33.48 42.29 31.57"/><polygon class="cls-4" points="42.29 40.02 42.92 41.94 44.92 41.94 43.3 43.11 43.93 45.03 42.29 43.84 40.67 45.03 41.28 43.11 39.66 41.94 41.67 41.94 42.29 40.02"/></g></g></g></svg>