<svg id="Capa_1" data-name="Capa 1" xmlns="http://www.w3.org/2000/svg" xmlns:xlink="http://www.w3.org/1999/xlink" viewBox="0 0 93.1 93.1"><defs><style>.cls-1{fill:none;}.cls-2{clip-path:url(#clip-path);}.cls-3{clip-path:url(#clip-path-2);}.cls-4{fill:#fff;}.cls-5{fill:#be1637;}.cls-6{fill:#293270;}.cls-7{clip-path:url(#clip-path-3);}.cls-8{clip-path:url(#clip-path-4);}.cls-9{fill:#c71621;}.cls-10{clip-path:url(#clip-path-5);}.cls-11{clip-path:url(#clip-path-6);}.cls-12{fill:#f3d131;}.cls-13{fill:#223a8a;}.cls-14{fill:#bc1733;}</style><clipPath id="clip-path"><circle class="cls-1" cx="46.38" cy="46.8" r="45.62"/></clipPath><clipPath id="clip-path-2"><rect class="cls-1" x="-36.41" y="1.69" width="161.18" height="94.02"/></clipPath><clipPath id="clip-path-3"><circle class="cls-1" cx="-66.62" cy="46.54" r="45.62"/></clipPath><clipPath id="clip-path-4"><rect class="cls-1" x="-148.23" y="-3.37" width="163.79" height="95.54"/></clipPath><clipPath id="clip-path-5"><circle class="cls-1" cx="159.38" cy="46.27" r="45.62"/></clipPath><clipPath id="clip-path-6"><rect class="cls-1" x="79.97" y="0.72" width="161.18" height="94.01"/></clipPath></defs><g class="cls-2"><g id="UNITED_KINGDOM" data-name="UNITED KINGDOM"><g class="cls-3"><rect class="cls-4" x="-36.41" y="1.69" width="161.18" height="94.02"/><polygon class="cls-5" points="71.51 35.68 124.76 5.86 124.76 1.69 121.09 1.69 60.37 35.68 71.51 35.68"/><polygon class="cls-5" points="68.99 63.59 124.76 94.81 124.76 88.57 80.14 63.59 68.99 63.59"/><polygon class="cls-5" points="-36.41 8.84 11.29 35.68 22.44 35.68 -36.41 2.6 -36.41 8.84"/><polygon class="cls-5" points="19.91 63.59 -36.41 95.16 -36.41 95.7 -26.24 95.7 31.07 63.59 19.91 63.59"/><polygon class="cls-6" points="113.73 1.69 57.3 1.69 57.3 33.29 113.73 1.69"/><polygon class="cls-6" points="32.38 1.69 -23.82 1.69 32.38 33.29 32.38 1.69"/><polygon class="cls-6" points="124.76 35.68 124.76 14.11 86.48 35.68 124.76 35.68"/><polygon class="cls-6" points="124.76 84.93 124.76 63.59 86.48 63.59 124.76 84.93"/><polygon class="cls-6" points="-20.63 95.7 32.38 95.7 32.38 65.99 -20.63 95.7"/><polygon class="cls-6" points="57.3 95.7 110.49 95.7 57.3 65.99 57.3 95.7"/><polygon class="cls-6" points="-36.41 63.59 -36.41 85.89 3.2 63.59 -36.41 63.59"/><polygon class="cls-6" points="-36.41 35.68 3.2 35.68 -36.41 13.34 -36.41 35.68"/><polygon class="cls-5" points="37.37 1.69 37.37 41.26 -36.41 41.26 -36.41 58.02 37.37 58.02 37.37 95.7 52.32 95.7 52.32 58.02 124.76 58.02 124.76 41.26 52.32 41.26 52.32 1.69 37.37 1.69"/></g></g></g><g class="cls-7"><g id="SWITZERLAND"><g class="cls-8"><rect class="cls-9" x="-148.23" y="-3.37" width="163.79" height="95.54"/></g></g></g><g class="cls-10"><g id="COLOMBIA"><g class="cls-11"><rect class="cls-12" x="79.97" y="0.72" width="161.18" height="47.01"/><rect class="cls-13" x="79.97" y="47.73" width="161.18" height="23.5"/><rect class="cls-14" x="79.97" y="71.23" width="161.18" height="23.51"/></g></g></g></svg>